<?xml version="1.0" encoding="UTF-8" standalone="no"?>
<svg
   xmlns:dc="http://purl.org/dc/elements/1.1/"
   xmlns:cc="http://creativecommons.org/ns#"
   xmlns:rdf="http://www.w3.org/1999/02/22-rdf-syntax-ns#"
   xmlns:svg="http://www.w3.org/2000/svg"
   xmlns="http://www.w3.org/2000/svg"
   xmlns:sodipodi="http://sodipodi.sourceforge.net/DTD/sodipodi-0.dtd"
   xmlns:inkscape="http://www.inkscape.org/namespaces/inkscape"
   version="1.0"
   width="152.34715"
   height="120.3577"
   id="svg998"
   sodipodi:docname="ASCII_full.svg"
   inkscape:version="0.92.4 (5da689c313, 2019-01-14)">
  <metadata
     id="metadata1004">
    <rdf:RDF>
      <cc:Work
         rdf:about="">
        <dc:format>image/svg+xml</dc:format>
        <dc:type
           rdf:resource="http://purl.org/dc/dcmitype/StillImage" />
        <dc:title />
      </cc:Work>
    </rdf:RDF>
  </metadata>
  <defs
     id="defs1002" />
  <sodipodi:namedview
     pagecolor="#ffffff"
     bordercolor="#666666"
     borderopacity="1"
     objecttolerance="10"
     gridtolerance="10"
     guidetolerance="10"
     inkscape:pageopacity="0"
     inkscape:pageshadow="2"
     inkscape:window-width="1255"
     inkscape:window-height="866"
     id="namedview1000"
     showgrid="false"
     inkscape:zoom="4"
     inkscape:cx="22.53097"
     inkscape:cy="68.46893"
     inkscape:window-x="169"
     inkscape:window-y="14"
     inkscape:window-maximized="0"
     inkscape:current-layer="svg998"
     fit-margin-top="10"
     fit-margin-left="10"
     fit-margin-right="10"
     fit-margin-bottom="10"
     inkscape:snap-page="true" />
  <path
     d="m 21.639299,10.426076 h 1.372909 v 4.429832 l -0.142024,2.414427 h -1.088861 l -0.142024,-2.414427 z m 0,8.379483 h 1.372909 v 1.717828 h -1.372909 z m 10.895357,-8.379483 v 3.753521 h -1.17678 v -3.753521 z m -2.590268,0 v 3.753521 h -1.17678 v -3.753521 z m 9.495395,0.155551 -0.703363,2.806687 h 1.656961 l 0.710125,-2.806687 h 1.082097 l -0.710125,2.806687 h 1.650196 v 1.041518 h -1.900431 l -0.568101,2.258876 h 1.690775 v 1.034755 h -1.954536 l -0.703363,2.799924 h -1.082096 l 0.710126,-2.799924 h -1.663723 l -0.710126,2.799924 h -1.075333 l 0.703363,-2.799924 h -1.744881 v -1.034755 h 2.008641 l 0.568101,-2.258876 h -1.798985 v -1.041518 h 2.04922 l 0.703362,-2.806687 z m 0.703363,3.848205 h -1.656959 l -0.568102,2.258876 h 1.663724 z m 7.682884,2.170957 v 2.935185 c 0.495955,-0.01353 0.883707,-0.151041 1.163253,-0.412549 0.279537,-0.261505 0.419307,-0.617695 0.419314,-1.06857 -7e-6,-0.41931 -0.126251,-0.745065 -0.378735,-0.977269 -0.252494,-0.232195 -0.653772,-0.391129 -1.203832,-0.476797 z m -0.67631,-1.284991 v -2.793161 c -0.468911,0.01805 -0.835247,0.153306 -1.099004,0.405786 -0.263764,0.252498 -0.395644,0.590653 -0.395641,1.014466 -3e-6,0.387758 0.12286,0.694351 0.368588,0.919781 0.245723,0.225443 0.621075,0.376485 1.126057,0.453128 z m 0.67631,7.243283 h -0.67631 l -0.0067,-2.035694 c -0.459895,-0.02254 -0.916403,-0.08566 -1.369528,-0.189366 -0.45313,-0.103695 -0.900621,-0.24798 -1.342475,-0.432839 v -1.217358 c 0.450871,0.279543 0.905126,0.493708 1.362764,0.642495 0.457633,0.148788 0.909634,0.227691 1.356002,0.236708 v -3.097501 c -0.90179,-0.139766 -1.580354,-0.4148 -2.035733,-0.825099 -0.455384,-0.41029 -0.683074,-0.953591 -0.683073,-1.629907 -10e-7,-0.707864 0.237833,-1.272583 0.713507,-1.694157 0.475668,-0.421558 1.144087,-0.663902 2.005259,-0.727034 V 10 h 0.67631 l 0.0067,1.589329 c 0.356184,0.02256 0.716883,0.06764 1.082095,0.135262 0.365202,0.06763 0.737172,0.160069 1.115912,0.277288 v 1.170017 C 49.647511,12.978027 49.274414,12.828111 48.911467,12.72215 48.548508,12.616199 48.186682,12.554206 47.825989,12.536165 v 2.914895 c 0.928794,0.139776 1.636664,0.428336 2.123614,0.865677 0.486937,0.437352 0.730408,1.003197 0.730415,1.69754 -7e-6,0.694347 -0.262641,1.273719 -0.787901,1.738117 -0.525274,0.4644 -1.211728,0.716888 -2.059364,0.757467 z m 8.359194,-4.193124 c -5e-6,0.351684 0.11835,0.647006 0.355063,0.885968 0.236703,0.238963 0.530897,0.358444 0.882585,0.358444 0.347166,0 0.641361,-0.120608 0.882585,-0.361826 0.24121,-0.241216 0.361819,-0.535411 0.361826,-0.882586 -7e-6,-0.347169 -0.121742,-0.642491 -0.365208,-0.885966 -0.243478,-0.243468 -0.536546,-0.365204 -0.879203,-0.365208 -0.351688,4e-6 -0.645882,0.119486 -0.882585,0.358445 -0.236713,0.238966 -0.355068,0.536542 -0.355063,0.892729 z m -0.913019,0 c -4e-6,-0.608676 0.207398,-1.121544 0.622205,-1.538606 0.4148,-0.417053 0.924286,-0.625582 1.528462,-0.625586 0.288553,4e-6 0.562458,0.05411 0.821718,0.162314 0.259243,0.108217 0.492571,0.266019 0.699979,0.473418 0.207395,0.211914 0.367455,0.448622 0.480181,0.710125 0.112714,0.26151 0.16907,0.534288 0.169078,0.818335 -8e-6,0.599664 -0.209664,1.10915 -0.628968,1.528461 -0.419319,0.419313 -0.933315,0.628969 -1.541988,0.628969 -0.613193,0 -1.124934,-0.206275 -1.535224,-0.618823 -0.410299,-0.412548 -0.615447,-0.925417 -0.615443,-1.538607 z m -2.975764,-0.987411 -0.236709,-0.649259 7.047153,-2.826977 0.277286,0.649258 z m 0.317865,-4.375729 c -10e-7,0.356198 0.118354,0.652647 0.355063,0.889349 0.236707,0.236715 0.533156,0.355069 0.889348,0.355063 0.347169,6e-6 0.642492,-0.120602 0.885967,-0.361826 0.243468,-0.24121 0.365204,-0.535406 0.365207,-0.882586 -3e-6,-0.347164 -0.121739,-0.641358 -0.365207,-0.882584 -0.243475,-0.241208 -0.538798,-0.361817 -0.885967,-0.361826 -0.347175,9e-6 -0.641369,0.119489 -0.882584,0.358445 -0.241219,0.238971 -0.361828,0.534292 -0.361827,0.885965 z m -0.913019,0 c 0,-0.60867 0.207402,-1.121539 0.622206,-1.538605 0.414802,-0.417049 0.926543,-0.625578 1.535224,-0.625587 0.288557,9e-6 0.564716,0.05412 0.82848,0.162314 0.263758,0.108216 0.497085,0.26377 0.699981,0.466655 0.202889,0.202902 0.359568,0.436228 0.470035,0.699981 0.110459,0.263769 0.165692,0.542183 0.165697,0.835242 -5e-6,0.604179 -0.209661,1.114791 -0.628969,1.531844 -0.419316,0.417064 -0.931056,0.625591 -1.535224,0.625587 -0.608681,4e-6 -1.120422,-0.207397 -1.535224,-0.622205 -0.414804,-0.414798 -0.622206,-0.92654 -0.622206,-1.535226 z m 11.808377,1.386436 2.813449,3.780575 c 0.175839,-0.220926 0.306589,-0.500468 0.39226,-0.838625 0.08565,-0.338151 0.128496,-0.741682 0.128496,-1.210595 0,-0.144276 -0.007,-0.37422 -0.02034,-0.689836 l -0.007,-0.04734 h 1.109159 v 0.263761 c -1.2e-5,0.72591 -0.08344,1.362769 -0.250239,1.910576 -0.166803,0.547814 -0.419285,1.020104 -0.757437,1.41687 l 1.149728,1.548751 h -1.440536 l -0.527531,-0.737176 c -0.374228,0.315612 -0.770996,0.550067 -1.190303,0.703363 -0.419317,0.153297 -0.867936,0.229945 -1.345857,0.229945 -0.973889,0 -1.778697,-0.303212 -2.414427,-0.909637 -0.635733,-0.606424 -0.953598,-1.369526 -0.953598,-2.28931 0,-0.617693 0.15555,-1.190302 0.466655,-1.717828 0.311101,-0.527517 0.780009,-1.016714 1.406724,-1.467593 -0.225439,-0.324622 -0.392262,-0.642488 -0.500469,-0.953597 -0.108216,-0.311096 -0.162316,-0.626706 -0.162315,-0.946834 -1e-6,-0.676302 0.224308,-1.210586 0.672929,-1.602856 0.448617,-0.39225 1.06293,-0.58838 1.842945,-0.588389 0.293064,9e-6 0.587258,0.02707 0.882584,0.08116 0.295319,0.05412 0.600784,0.133018 0.916401,0.236709 v 1.237647 c -0.26602,-0.175832 -0.539926,-0.305458 -0.821716,-0.388878 -0.281802,-0.08341 -0.578251,-0.125108 -0.889349,-0.125117 -0.43735,9e-6 -0.782268,0.10258 -1.034754,0.30772 -0.252492,0.205157 -0.378736,0.481316 -0.378734,0.82848 -2e-6,0.266024 0.06538,0.544438 0.19613,0.835245 0.13075,0.290819 0.369714,0.668426 0.716889,1.132818 z m -0.885966,0.703363 c -0.414806,0.329143 -0.724782,0.677443 -0.929927,1.0449 -0.20515,0.367465 -0.307723,0.758598 -0.30772,1.173398 -3e-6,0.680821 0.225434,1.24554 0.676308,1.694158 0.450871,0.448619 1.025735,0.672929 1.724591,0.672928 0.189364,10e-7 0.387748,-0.02705 0.595154,-0.08116 0.207397,-0.05411 0.41029,-0.133007 0.608679,-0.236708 0.121731,-0.06762 0.222051,-0.127372 0.300958,-0.179223 0.0789,-0.05184 0.154419,-0.107078 0.226564,-0.165696 z m 10.266395,-4.66654 v 3.753521 h -1.176782 v -3.753521 z m 9.569784,-0.412549 c -0.599663,1.028 -1.047159,2.052609 -1.342476,3.073829 -0.295329,1.021236 -0.442988,2.050352 -0.442976,3.087357 -1.2e-5,1.032504 0.147647,2.060493 0.442976,3.083974 0.295317,1.023483 0.742813,2.053728 1.342476,3.090738 h -1.082093 c -0.680826,-1.073079 -1.188054,-2.117978 -1.521698,-3.134697 -0.333655,-1.016719 -0.500477,-2.030056 -0.500477,-3.040015 0,-1.005443 0.166822,-2.017653 0.500477,-3.036634 0.333644,-1.018964 0.840872,-2.060481 1.521698,-3.124552 z m 4.700355,0 h 1.082104 c 0.680815,1.064071 1.188043,2.105588 1.521699,3.124552 0.333632,1.018981 0.500454,2.031191 0.500465,3.036634 -1.1e-5,1.014469 -0.166833,2.031187 -0.500465,3.050159 -0.333656,1.018974 -0.840884,2.06049 -1.521699,3.124553 h -1.082104 c 0.599663,-1.046028 1.047148,-2.080781 1.342476,-3.104264 0.295317,-1.02348 0.442988,-2.046962 0.442988,-3.070448 0,-1.027986 -0.147671,-2.053723 -0.442988,-3.077211 -0.295328,-1.023475 -0.742813,-2.051466 -1.342476,-3.083975 z m 13.194808,2.076272 -2.421188,1.312042 2.421188,1.318805 -0.385485,0.662784 -2.272414,-1.37291 v 2.54969 h -0.777746 v -2.54969 l -2.272403,1.37291 -0.385497,-0.662784 2.421188,-1.318805 -2.421188,-1.312042 0.385497,-0.669546 2.272403,1.372909 v -2.549689 h 0.777746 v 2.549689 l 2.272414,-1.372909 z m 5.8501,0.513996 v 3.002817 h 3.00957 v 1.149727 h -3.00957 v 3.002818 h -1.13621 v -3.002818 h -3.00281 v -1.149727 h 3.00281 v -3.002817 z m 6.99304,5.870373 h 1.7043 v 1.399962 l -1.33233,2.590268 h -1.04152 l 0.66955,-2.590268 z m 7.34473,-2.299455 h 3.52357 v 1.109148 h -3.52357 z m 9.23163,2.285928 h 1.7043 v 2.062746 h -1.7043 z m 11.03738,-8.034565 h 1.28499 l -5.3158,11.3823 h -1.29175 z M 13.083975,32.764602 c -4e-6,-0.247975 0.08679,-0.462139 0.260379,-0.642494 0.173583,-0.180344 0.382111,-0.270518 0.625587,-0.270524 0.252485,6e-6 0.468903,0.09018 0.649258,0.270524 0.180344,0.180355 0.270519,0.394519 0.270523,0.642494 -4e-6,0.252494 -0.08905,0.466659 -0.267142,0.642494 -0.178099,0.175846 -0.395645,0.263766 -0.652639,0.263762 -0.252493,4e-6 -0.463277,-0.08566 -0.632351,-0.256998 -0.169081,-0.171327 -0.253619,-0.387746 -0.253615,-0.649258 z m 0.899492,-4.125493 c -0.635735,1.1e-5 -1.110279,0.342674 -1.423634,1.027992 -0.313359,0.685335 -0.470037,1.729106 -0.470035,3.131317 -2e-6,1.397711 0.156676,2.439228 0.470035,3.124553 0.313355,0.68533 0.787899,1.027992 1.423634,1.027991 0.640235,1e-6 1.117034,-0.342661 1.430396,-1.027991 0.313351,-0.685325 0.470029,-1.726842 0.470036,-3.124553 -7e-6,-1.402211 -0.156685,-2.445982 -0.470036,-3.131317 -0.313362,-0.685318 -0.790161,-1.027981 -1.430396,-1.027992 z m 0,-1.082095 c 1.077582,9e-6 1.892535,0.441866 2.444861,1.325568 0.552313,0.88372 0.828473,2.188997 0.82848,3.915836 -7e-6,1.72234 -0.276167,3.025362 -0.82848,3.909073 -0.552326,0.883712 -1.367279,1.325568 -2.444861,1.325568 -1.07759,0 -1.891417,-0.441856 -2.44148,-1.325568 -0.550067,-0.883711 -0.825099,-2.186733 -0.825098,-3.909073 -10e-7,-1.726839 0.275031,-3.032116 0.825098,-3.915836 0.550063,-0.883702 1.36389,-1.325559 2.44148,-1.325568 z m 5.992109,9.130187 h 2.123614 v -7.716699 l -2.285929,0.513996 v -1.244411 l 2.272402,-0.50047 h 1.366147 v 8.947584 h 2.096561 v 1.149727 h -5.572795 z m 9.028741,0 h 4.639489 v 1.149727 h -6.134134 v -1.149727 c 0.84313,-0.888218 1.580308,-1.672737 2.211534,-2.353559 0.631219,-0.680815 1.066312,-1.160994 1.305279,-1.44054 0.450868,-0.55006 0.755207,-0.995299 0.913018,-1.335714 0.1578,-0.340402 0.236703,-0.688701 0.236709,-1.044898 -6e-6,-0.563585 -0.165702,-1.00544 -0.497089,-1.325569 -0.331397,-0.320111 -0.785651,-0.480171 -1.362765,-0.48018 -0.410298,9e-6 -0.840881,0.0744 -1.291751,0.223182 -0.450877,0.148798 -0.928802,0.374234 -1.433779,0.67631 v -1.379671 c 0.464398,-0.220919 0.920908,-0.387743 1.369529,-0.500471 0.448616,-0.112713 0.891599,-0.169068 1.32895,-0.169077 0.987407,9e-6 1.782071,0.262643 2.383993,0.787901 0.601909,0.525277 0.902867,1.213985 0.902874,2.066128 -7e-6,0.432845 -0.100326,0.865684 -0.300958,1.298515 -0.200645,0.432844 -0.526402,0.91077 -0.977269,1.433779 -0.252494,0.293071 -0.618828,0.698857 -1.099003,1.217357 -0.480185,0.518507 -1.211727,1.29401 -2.194627,2.326507 z M 40.06199,32.43321 c 0.662777,0.175846 1.170009,0.488075 1.521697,0.936689 0.351674,0.448624 0.527515,1.008834 0.527522,1.680632 -7e-6,0.928801 -0.312238,1.658088 -0.93669,2.187863 -0.624466,0.529777 -1.489014,0.794665 -2.59365,0.794665 -0.464403,0 -0.937819,-0.04284 -1.42025,-0.128499 -0.482438,-0.08567 -0.955854,-0.209656 -1.420252,-0.37197 v -1.359385 c 0.459889,0.238965 0.913017,0.417059 1.359383,0.534286 0.446362,0.117228 0.890472,0.175842 1.332331,0.175841 0.748446,10e-7 1.323309,-0.169077 1.724591,-0.507233 0.401272,-0.338154 0.60191,-0.825097 0.601917,-1.46083 -7e-6,-0.586132 -0.200645,-1.051658 -0.601917,-1.396582 -0.401282,-0.344912 -0.944583,-0.517371 -1.629908,-0.517376 h -1.041518 v -1.122675 h 1.041518 c 0.626711,5e-6 1.115907,-0.13751 1.467594,-0.412549 0.351676,-0.275027 0.527516,-0.658269 0.527522,-1.149728 -6e-6,-0.518496 -0.163447,-0.916392 -0.490325,-1.193687 -0.326888,-0.277279 -0.792415,-0.415922 -1.39658,-0.415931 -0.401281,9e-6 -0.816085,0.0451 -1.244412,0.135262 -0.428332,0.09018 -0.87695,0.225445 -1.345857,0.405786 v -1.257937 c 0.545555,-0.144269 1.031371,-0.252479 1.457449,-0.324629 0.426072,-0.07213 0.803678,-0.108204 1.13282,-0.108204 0.982898,9e-6 1.768544,0.246862 2.35694,0.740559 0.588383,0.493715 0.882579,1.148608 0.882586,1.964681 -7e-6,0.554582 -0.154431,1.016726 -0.463273,1.386436 -0.308855,0.369722 -0.758601,0.631229 -1.349238,0.78452 z m 8.054854,-3.449182 -3.185422,5.336089 h 3.185422 z m -0.223182,-1.244411 h 1.582565 v 6.5805 h 1.345858 v 1.109148 h -1.345858 v 2.407663 H 48.116844 V 35.429265 H 43.8358 v -1.291753 z m 4.984405,0 h 5.112906 v 1.149727 h -3.868495 v 2.482059 c 0.193873,-0.07213 0.388875,-0.12511 0.585009,-0.158933 0.196126,-0.03381 0.393382,-0.05072 0.591771,-0.05073 1.046022,7e-6 1.875628,0.308855 2.488822,0.926545 0.61318,0.617702 0.919775,1.454072 0.919781,2.509111 -6e-6,1.064064 -0.321254,1.902688 -0.963741,2.515875 -0.642501,0.613187 -1.520576,0.919781 -2.634229,0.919781 -0.536542,0 -1.026867,-0.03607 -1.470974,-0.108216 -0.444112,-0.07214 -0.842008,-0.180349 -1.193688,-0.324628 v -1.386429 c 0.414802,0.225438 0.831859,0.393388 1.251174,0.50385 0.419309,0.110471 0.847638,0.165697 1.284989,0.165697 0.752954,0 1.333453,-0.198383 1.741499,-0.595153 0.408034,-0.396766 0.612054,-0.960358 0.61206,-1.690776 -6e-6,-0.721393 -0.210788,-1.28273 -0.632349,-1.684011 -0.421572,-0.401273 -1.008834,-0.601912 -1.761788,-0.601917 -0.365211,5e-6 -0.721401,0.04171 -1.068571,0.125117 -0.347174,0.08342 -0.678566,0.208534 -0.994176,0.375353 z m 13.634412,0.223182 v 1.257938 c -0.284056,-0.166815 -0.58614,-0.294186 -0.906254,-0.382115 -0.320126,-0.08792 -0.653772,-0.131872 -1.000939,-0.131881 -0.86568,9e-6 -1.521701,0.325765 -1.968063,0.977268 -0.446366,0.65152 -0.669548,1.610753 -0.669546,2.8777 0.216416,-0.450867 0.516247,-0.796912 0.899492,-1.038136 0.383239,-0.241211 0.82284,-0.361819 1.318805,-0.361826 0.973881,7e-6 1.727967,0.29871 2.262252,0.896111 0.534283,0.597413 0.80143,1.443926 0.80143,2.539545 0,1.091116 -0.275038,1.936503 -0.825091,2.536164 -0.550076,0.599661 -1.323324,0.899492 -2.319748,0.899492 -1.172274,0 -2.031188,-0.420439 -2.576742,-1.26132 -0.545559,-0.840876 -0.818336,-2.165315 -0.818336,-3.973321 0,-1.704295 0.32801,-3.003937 0.984032,-3.898928 0.656018,-0.894975 1.606233,-1.342467 2.850647,-1.342476 0.333641,9e-6 0.667288,0.03496 1.00094,0.104823 0.33364,0.0699 0.656011,0.170215 0.967121,0.300958 z m -2.434715,4.267519 c -0.581631,4e-6 -1.039266,0.20966 -1.372909,0.628967 -0.333649,0.419317 -0.500472,0.998689 -0.50047,1.738118 -2e-6,0.739435 0.166821,1.318807 0.50047,1.738117 0.333643,0.419314 0.791278,0.628969 1.372909,0.628969 0.604166,0 1.059548,-0.199511 1.366147,-0.598535 0.306589,-0.399021 0.459884,-0.988538 0.459891,-1.768551 -7e-6,-0.784515 -0.153302,-1.37516 -0.459891,-1.771933 -0.306599,-0.396763 -0.761981,-0.595148 -1.366147,-0.595152 z m 5.004701,-4.490701 h 6.357311 v 0.581627 l -3.611497,9.515684 H 70.40127 l 3.516808,-8.947584 h -4.835613 z m 11.558142,5.302273 c -0.608693,4e-6 -1.078722,0.170209 -1.410112,0.510614 -0.331389,0.340413 -0.497083,0.821721 -0.497083,1.443921 0,0.622209 0.167949,1.10577 0.503847,1.450687 0.335898,0.344919 0.803685,0.517377 1.403348,0.517377 0.61318,0 1.085464,-0.170205 1.416864,-0.510614 0.33139,-0.340408 0.497084,-0.826224 0.497096,-1.45745 -1.2e-5,-0.617692 -0.167961,-1.097872 -0.503859,-1.440541 -0.335898,-0.342658 -0.805939,-0.51399 -1.410101,-0.513994 z m -1.190309,-0.568101 c -0.581628,-0.148783 -1.035887,-0.42607 -1.362767,-0.831861 -0.32688,-0.40578 -0.49032,-0.894978 -0.49032,-1.467593 0,-0.802547 0.272772,-1.439406 0.818339,-1.910576 0.545544,-0.471154 1.28723,-0.706736 2.225057,-0.706745 0.942314,9e-6 1.686255,0.235591 2.231822,0.706745 0.545544,0.47117 0.818327,1.108029 0.818327,1.910576 0,0.572615 -0.16344,1.061813 -0.49032,1.467593 -0.326892,0.405791 -0.78114,0.683078 -1.362767,0.831861 0.676305,0.148794 1.193679,0.448623 1.552134,0.899492 0.358443,0.450878 0.537665,1.034758 0.537665,1.751644 0,0.910766 -0.290808,1.623146 -0.872436,2.13714 -0.581639,0.513995 -1.38644,0.770994 -2.414425,0.770994 -1.027996,0 -1.831681,-0.25587 -2.411042,-0.767612 -0.579385,-0.511741 -0.869066,-1.220738 -0.869066,-2.126996 0,-0.721394 0.179222,-1.308657 0.537665,-1.761788 0.358443,-0.453122 0.875817,-0.75408 1.552134,-0.902874 z m -0.493713,-2.170957 c 0,0.541056 0.144288,0.953605 0.432841,1.237649 0.288554,0.284056 0.705626,0.426081 1.251181,0.426074 0.550053,7e-6 0.969368,-0.142018 1.257933,-0.426074 0.288554,-0.284044 0.432842,-0.696593 0.432842,-1.237649 0,-0.550056 -0.143161,-0.969369 -0.42946,-1.257936 -0.28631,-0.28855 -0.706753,-0.432829 -1.261315,-0.432838 -0.545555,9e-6 -0.962627,0.145415 -1.251181,0.43622 -0.288553,0.290822 -0.432841,0.709007 -0.432841,1.254554 z m 9.880894,3.056923 c 0.581628,5e-6 1.038142,-0.209651 1.369531,-0.628969 0.331389,-0.419306 0.497084,-0.998678 0.497084,-1.738117 0,-0.739424 -0.165695,-1.318796 -0.497084,-1.738117 -0.331389,-0.419303 -0.787903,-0.628959 -1.369531,-0.628968 -0.604172,9e-6 -1.059548,0.19952 -1.366137,0.598534 -0.306601,0.399031 -0.459896,0.988548 -0.459896,1.768551 0,0.784527 0.152167,1.37517 0.456514,1.771933 0.304335,0.396773 0.760838,0.595158 1.369519,0.595153 z m -2.434715,4.267517 v -1.257936 c 0.284056,0.166824 0.586137,0.294195 0.906253,0.382115 0.320117,0.08793 0.653772,0.131882 1.000943,0.131881 0.865672,10e-7 1.520571,-0.325756 1.964685,-0.977269 0.444103,-0.65151 0.66616,-1.610741 0.66616,-2.877699 -0.211912,0.450877 -0.509483,0.796922 -0.892726,1.038135 -0.383243,0.241221 -0.822848,0.36183 -1.318804,0.361827 -0.973889,3e-6 -1.727974,-0.299828 -2.262258,-0.899493 -0.534283,-0.599657 -0.80143,-1.449552 -0.80143,-2.54969 0,-1.086597 0.273911,-1.928603 0.821721,-2.526019 0.54781,-0.597397 1.322175,-0.896101 2.323129,-0.89611 1.172262,9e-6 2.03117,0.421576 2.576737,1.2647 0.545544,0.843141 0.818328,2.168708 0.818339,3.976704 -1.1e-5,1.699795 -0.328019,2.997183 -0.984033,3.892165 -0.656027,0.894984 -1.608497,1.342476 -2.857412,1.342476 -0.329146,0 -0.660535,-0.03495 -0.994179,-0.104823 -0.333644,-0.06989 -0.656015,-0.170205 -0.967125,-0.300959 z m 10.043208,-6.979521 h 1.704301 v 2.04922 h -1.704301 z m 0,5.126432 h 1.704301 v 2.062745 h -1.704301 z m 8.420068,0.01353 h 1.70429 v 1.399964 l -1.33232,2.590268 h -1.04152 l 0.66955,-2.590268 z m -0.088,-5.139957 h 1.7043 v 2.049221 h -1.7043 z m 12.76873,0.689837 -5.74863,2.164192 5.74863,2.143904 v 1.23765 l -7.1486,-2.826977 v -1.122675 l 7.1486,-2.826976 z m 1.18356,2.955476 h 7.14859 v 1.163253 h -7.14859 z m 0,-2.74582 h 7.14859 v 1.149728 h -7.1486 z m 8.33212,-0.209659 v -1.230884 l 7.1486,2.826976 v 1.122675 l -7.1486,2.826977 v -1.237653 l 5.74864,-2.143904 z m 12.36296,3.787338 h -1.28499 V 34.08341 c 0,-0.441852 0.0688,-0.817204 0.20628,-1.126057 0.13751,-0.308843 0.39563,-0.648125 0.77437,-1.017847 l 0.60867,-0.601916 c 0.27954,-0.266008 0.47229,-0.498208 0.57826,-0.696599 0.10599,-0.198378 0.15892,-0.408033 0.15893,-0.628969 -1e-5,-0.401269 -0.14767,-0.725897 -0.44299,-0.973887 -0.29532,-0.247971 -0.68871,-0.371961 -1.18016,-0.37197 -0.35169,9e-6 -0.72816,0.07778 -1.12944,0.233326 -0.40128,0.155561 -0.82285,0.386634 -1.26469,0.693219 v -1.271462 c 0.42381,-0.256988 0.85101,-0.448608 1.2816,-0.574862 0.43059,-0.126235 0.88033,-0.189358 1.34924,-0.189367 0.83862,9e-6 1.50705,0.216429 2.00526,0.649257 0.49821,0.432849 0.74732,1.012219 0.74732,1.738117 0,0.342672 -0.0755,0.661665 -0.22656,0.956979 -0.15105,0.295329 -0.43849,0.650392 -0.8623,1.065188 l -0.59515,0.581628 c -0.3111,0.297582 -0.5095,0.541052 -0.59516,0.730414 -0.0856,0.189372 -0.1285,0.421572 -0.12849,0.696601 v 0.317865 z m -1.33233,0.994175 h 1.37291 v 1.717828 h -1.37291 z M 16.837497,51.464579 c -9e-6,-0.581623 -0.144288,-1.047148 -0.432839,-1.39658 -0.288566,-0.349422 -0.674062,-0.524135 -1.156491,-0.52414 -0.48244,5e-6 -0.869064,0.174718 -1.159872,0.52414 -0.290817,0.349432 -0.436224,0.814957 -0.43622,1.39658 -4e-6,0.586139 0.145403,1.05392 0.43622,1.403344 0.290808,0.349429 0.677432,0.524143 1.159872,0.52414 0.482429,3e-6 0.867925,-0.174711 1.156491,-0.52414 0.288551,-0.349424 0.43283,-0.817205 0.432839,-1.403344 z m 0.946834,2.772873 h -0.973887 v -0.750705 c -0.16683,0.284052 -0.397903,0.502725 -0.693218,0.656021 -0.295328,0.153297 -0.627847,0.229946 -0.997558,0.229945 -0.72591,1e-6 -1.326699,-0.272777 -1.802367,-0.818335 -0.475674,-0.545554 -0.713509,-1.242153 -0.713507,-2.089799 -2e-6,-0.847637 0.237833,-1.544235 0.713507,-2.089798 0.475668,-0.545551 1.076457,-0.818328 1.802367,-0.818335 0.360693,7e-6 0.692084,0.07891 0.994176,0.236709 0.302079,0.157812 0.534279,0.37423 0.6966,0.649257 v -0.426075 c -7e-6,-0.703356 -0.198391,-1.269202 -0.595154,-1.697539 -0.396774,-0.428322 -0.922041,-0.642486 -1.575803,-0.642495 -1.109152,9e-6 -1.991736,0.431719 -2.647754,1.295135 -0.656022,0.863428 -0.984033,2.032317 -0.984032,3.506667 -1e-6,1.483377 0.371969,2.664664 1.115912,3.543866 0.743939,0.879203 1.733605,1.318803 2.969003,1.318806 0.243466,-3e-6 0.486937,-0.02255 0.730415,-0.06764 0.243465,-0.04509 0.4937,-0.114969 0.750703,-0.209657 l 0.32463,0.913019 c -0.284057,0.112714 -0.564726,0.196128 -0.842006,0.250235 -0.277294,0.0541 -0.54669,0.08115 -0.808192,0.08116 -1.609621,-4e-6 -2.886719,-0.52527 -3.831296,-1.575804 C 10.472289,54.681556 10,53.26356 10,51.478098 c 0,-1.7584 0.42382,-3.158361 1.271463,-4.199885 0.84764,-1.04151 1.98384,-1.562268 3.408603,-1.562277 0.942321,9e-6 1.695278,0.29984 2.258876,0.899492 0.563585,0.599671 0.845381,1.404478 0.845389,2.414428 z m 4.531278,-7.980462 -1.440541,5.167012 h 2.881082 z m -0.825098,-1.203831 h 1.656959 l 3.090738,10.097311 h -1.413489 l -0.74394,-2.630847 h -3.537104 l -0.730414,2.630847 h -1.413488 z m 7.486753,5.275219 v 3.699418 h 1.616382 c 0.793533,10e-7 1.359378,-0.138643 1.697539,-0.415931 0.338149,-0.277286 0.507226,-0.733794 0.507232,-1.369529 -6e-6,-0.658271 -0.178101,-1.141833 -0.534285,-1.450685 -0.356196,-0.308844 -0.913024,-0.463268 -1.670486,-0.463273 z m 0,-4.152544 v 3.043396 h 1.589329 c 0.658271,6e-6 1.135069,-0.126239 1.430396,-0.378734 0.295317,-0.252483 0.442978,-0.660523 0.442984,-1.224121 -6e-6,-0.50948 -0.145412,-0.876941 -0.43622,-1.102386 -0.290819,-0.225427 -0.769871,-0.338147 -1.43716,-0.338155 z m -1.37291,-1.122675 h 2.989292 c 1.032495,10e-6 1.828286,0.223192 2.387374,0.669547 0.559077,0.446374 0.838618,1.077596 0.838625,1.893669 -7e-6,0.617703 -0.147667,1.104646 -0.442983,1.46083 -0.295329,0.356196 -0.738311,0.579378 -1.328949,0.669547 0.662777,0.0992 1.182408,0.38212 1.558896,0.848769 0.376471,0.466658 0.56471,1.060683 0.564717,1.782077 -7e-6,0.915275 -0.299837,1.606238 -0.899492,2.072892 -0.599668,0.466653 -1.492397,0.69998 -2.678188,0.69998 h -2.989292 z m 14.466276,9.738866 c -0.347179,0.184859 -0.70337,0.323502 -1.068569,0.415932 -0.365214,0.09242 -0.752966,0.138643 -1.163255,0.138643 -1.29401,0 -2.29833,-0.457636 -3.012962,-1.37291 -0.714635,-0.91527 -1.071952,-2.202513 -1.071951,-3.861731 -10e-7,-1.65019 0.35957,-2.936305 1.078715,-3.85835 0.719139,-0.922026 1.721206,-1.383044 3.006198,-1.383054 0.410289,10e-6 0.798041,0.04622 1.163255,0.138643 0.365199,0.09243 0.72139,0.231084 1.068569,0.415931 v 1.399962 c -0.333653,-0.275024 -0.692097,-0.48468 -1.075333,-0.628968 -0.383249,-0.144271 -0.768745,-0.21641 -1.156491,-0.216419 -0.888225,9e-6 -1.553262,0.342673 -1.995115,1.027992 -0.441858,0.685334 -0.662785,1.720089 -0.662783,3.104263 -2e-6,1.379677 0.220925,2.412176 0.662783,3.097501 0.441853,0.685329 1.10689,1.027992 1.995115,1.027992 0.396763,0 0.785641,-0.07214 1.166636,-0.21642 0.38098,-0.144278 0.736044,-0.353934 1.065188,-0.628969 z m 4.024047,-0.764229 c 1.149722,10e-7 1.952276,-0.282922 2.407663,-0.848771 0.455376,-0.565842 0.683068,-1.588198 0.683073,-3.067066 -5e-6,-1.492385 -0.226569,-2.521502 -0.679691,-3.087356 -0.453133,-0.565837 -1.256814,-0.848761 -2.411045,-0.848769 h -0.649259 v 7.851962 z m 0.02705,-8.974637 c 1.541982,10e-6 2.678182,0.410305 3.408602,1.230884 0.730409,0.820597 1.095616,2.096569 1.095623,3.827916 -7e-6,1.722341 -0.365214,2.992676 -1.095623,3.811008 -0.73042,0.818335 -1.86662,1.227503 -3.408602,1.227503 H 44.072509 V 45.053159 Z m 6.688707,0 h 5.992108 v 1.149727 h -4.625961 v 2.989291 h 4.423068 v 1.149728 h -4.423068 v 3.658838 h 4.754461 v 1.149727 h -6.120608 z m 8.575614,0 h 5.944767 v 1.149727 h -4.571858 v 2.975765 h 4.145779 v 1.149727 h -4.145779 v 4.822092 h -1.372909 z m 14.222801,9.265449 c -0.365207,0.338156 -0.776631,0.594026 -1.234261,0.767613 -0.457641,0.173585 -0.952482,0.260379 -1.484499,0.260379 -1.28049,0 -2.276923,-0.458764 -2.9893,-1.376291 -0.712378,-0.917526 -1.068566,-2.203641 -1.068566,-3.85835 0,-1.65019 0.360697,-2.936305 1.082093,-3.85835 0.721395,-0.922026 1.724592,-1.383044 3.009579,-1.383054 0.423824,10e-6 0.829612,0.05976 1.217363,0.179222 0.38774,0.119491 0.761965,0.300968 1.122674,0.544429 v 1.399964 c -0.365218,-0.347165 -0.739431,-0.603035 -1.122674,-0.767613 -0.383254,-0.164559 -0.78903,-0.246844 -1.217363,-0.246853 -0.888229,9e-6 -1.554389,0.3438 -1.998492,1.031372 -0.444114,0.687591 -0.666171,1.721217 -0.666171,3.100883 0,1.402221 0.215293,2.440355 0.645881,3.114408 0.430576,0.674058 1.092238,1.011085 1.984976,1.011085 0.30208,0 0.566962,-0.03495 0.794667,-0.104823 0.227682,-0.06989 0.433957,-0.179221 0.618815,-0.32801 v -2.712004 h -1.46759 V 49.96994 h 2.772868 z m 1.792231,-9.265449 h 1.372901 v 4.139018 h 3.740005 v -4.139018 h 1.372912 V 55.15047 H 82.513986 V 50.341905 H 78.773981 V 55.15047 H 77.40108 Z m 8.764973,0 h 5.606619 v 1.149727 h -2.116854 v 7.797857 h 2.116854 v 1.149727 h -5.606619 v -1.149727 h 2.116853 v -7.797857 h -2.116853 z m 7.709945,9.684762 v -1.596093 c 0.410296,0.36521 0.834109,0.639115 1.27146,0.821718 0.43735,0.182605 0.890471,0.273906 1.359385,0.273906 0.644742,0 1.094493,-0.16795 1.349241,-0.503852 0.254736,-0.335898 0.382103,-0.961485 0.382115,-1.87676 v -5.653954 h -2.576737 v -1.149727 h 3.942875 v 6.803681 c 0,1.271465 -0.237839,2.170957 -0.713505,2.698477 -0.475677,0.527522 -1.270344,0.791283 -2.383989,0.791283 -0.432842,0 -0.863429,-0.0496 -1.29175,-0.148788 -0.428333,-0.09919 -0.874702,-0.25249 -1.339095,-0.459891 z m 8.521502,-9.684762 h 1.37292 v 4.4907 l 4.26751,-4.4907 h 1.60286 l -3.92937,4.125492 4.04434,5.971819 h -1.65019 l -3.29364,-5.0588 -1.04151,1.109148 v 3.949652 h -1.37293 z m 8.85967,0 h 1.3729 v 8.947584 h 4.8762 v 1.149727 h -6.2491 z m 7.45969,0 h 1.82605 l 1.74488,5.139958 1.7584,-5.139958 H 125.879 V 55.15047 h -1.26471 v -8.920531 l -1.79898,5.32256 h -1.03476 l -1.80574,-5.32256 v 8.920531 h -1.25795 z m 8.69059,0 h 1.73135 l 3.40862,8.311852 v -8.311852 h 1.31879 V 55.15047 h -1.73136 l -3.40859,-8.311852 v 8.311852 h -1.31881 z m 13.51268,5.0588 c -1e-5,-1.483367 -0.15217,-2.542918 -0.4565,-3.178658 -0.30435,-0.635722 -0.8037,-0.953588 -1.49804,-0.953597 -0.68983,9e-6 -1.18693,0.317875 -1.49126,0.953597 -0.30434,0.63574 -0.45651,1.695291 -0.45651,3.178658 0,1.478868 0.15217,2.536166 0.45651,3.171895 0.30433,0.635733 0.80143,0.953598 1.49126,0.953598 0.69434,0 1.19369,-0.316739 1.49804,-0.950216 0.30433,-0.633476 0.45649,-1.691899 0.4565,-3.175277 z m 1.42702,0 c -1e-5,1.758409 -0.27843,3.07045 -0.83525,3.936125 -0.55683,0.865678 -1.4056,1.298516 -2.54631,1.298516 -1.14071,0 -1.98835,-0.430584 -2.54292,-1.291752 -0.55457,-0.861167 -0.83187,-2.175462 -0.83187,-3.942889 0,-1.762908 0.27842,-3.077204 0.83525,-3.942888 0.55683,-0.865667 1.40334,-1.298506 2.53954,-1.298516 1.14071,10e-6 1.98948,0.432849 2.54631,1.298516 0.55682,0.865684 0.83524,2.17998 0.83525,3.942888 z M 12.515874,63.489375 v 3.7941 h 1.582565 c 0.631219,6e-6 1.123797,-0.166817 1.477738,-0.500469 0.35393,-0.333641 0.530898,-0.800294 0.530904,-1.399962 -6e-6,-0.599654 -0.175847,-1.065181 -0.527522,-1.39658 -0.351687,-0.331384 -0.845393,-0.497081 -1.48112,-0.497089 z M 11.149727,62.3667 h 2.948712 c 1.127179,10e-6 1.981583,0.255881 2.563217,0.767612 0.581619,0.51175 0.872432,1.261327 0.87244,2.248732 -8e-6,0.996436 -0.289695,1.749394 -0.869059,2.258875 -0.579379,0.509492 -1.43491,0.764235 -2.566598,0.764231 h -1.582565 v 4.057863 H 11.149727 Z M 22.57937,72.646617 c -0.03156,0 -0.07665,0.0026 -0.135263,0.0067 -0.05862,0.0044 -0.105961,0.0067 -0.142024,0.0067 -1.127187,0 -1.969192,-0.432838 -2.526019,-1.298515 -0.55683,-0.865674 -0.835244,-2.177715 -0.835244,-3.936125 0,-1.762909 0.278414,-3.077203 0.835244,-3.942888 0.556827,-0.865668 1.40334,-1.298506 2.539545,-1.298516 1.140704,10e-6 1.989473,0.432848 2.546307,1.298516 0.556822,0.865685 0.835236,2.179979 0.835243,3.942888 -7e-6,1.325572 -0.154431,2.393015 -0.463272,3.202329 -0.308855,0.809321 -0.776636,1.376292 -1.403343,1.700917 l 1.352621,1.284992 -1.021229,0.676311 z m 1.690776,-5.221116 c -6e-6,-1.483367 -0.152176,-2.542919 -0.45651,-3.178658 -0.304346,-0.635723 -0.803687,-0.953589 -1.498027,-0.953598 -0.68984,9e-6 -1.186928,0.317875 -1.491264,0.953598 -0.304342,0.635739 -0.456512,1.695291 -0.45651,3.178658 -2e-6,1.478868 0.152168,2.536165 0.45651,3.171894 0.304336,0.635734 0.801424,0.953596 1.491264,0.953596 0.69434,0 1.193681,-0.316736 1.498027,-0.950214 0.304334,-0.633475 0.456504,-1.691899 0.45651,-3.175276 z m 7.351492,0.270524 c 0.351675,0.09018 0.651506,0.260383 0.899491,0.510614 0.247975,0.250239 0.556824,0.749581 0.926546,1.498028 l 1.372909,2.759346 H 33.352992 L 32.149159,69.914322 C 31.801981,69.18842 31.489752,68.720638 31.21247,68.510978 30.935178,68.301326 30.573352,68.196498 30.126992,68.196494 h -1.305279 v 4.267519 h -1.37291 V 62.3667 h 2.813451 c 1.109143,10e-6 1.959039,0.250246 2.54969,0.750705 0.590636,0.500478 0.885959,1.224129 0.885966,2.170956 -7e-6,0.667298 -0.181484,1.211728 -0.54443,1.633288 -0.36296,0.421573 -0.873574,0.679697 -1.531842,0.774376 z m -2.799925,-4.20665 v 3.584445 h 1.494645 c 0.653763,5e-6 1.140705,-0.146529 1.460831,-0.439603 0.320114,-0.293061 0.480175,-0.74168 0.48018,-1.345856 -5e-6,-0.58162 -0.17021,-1.026857 -0.510614,-1.335714 -0.340415,-0.308839 -0.835248,-0.463264 -1.484501,-0.463272 z m 12.836368,-0.777757 v 1.386437 c -0.41481,-0.266008 -0.83074,-0.466646 -1.247792,-0.601917 -0.417064,-0.135253 -0.837503,-0.202884 -1.26132,-0.202893 -0.644752,9e-6 -1.154238,0.149925 -1.52846,0.449746 -0.374227,0.29984 -0.56134,0.704498 -0.561337,1.213977 -3e-6,0.446371 0.12286,0.786781 0.368588,1.021228 0.245724,0.234461 0.704487,0.430591 1.376292,0.58839 l 0.716889,0.162315 c 0.946828,0.220934 1.636664,0.568106 2.06951,1.041518 0.43283,0.473421 0.64925,1.118169 0.649257,1.934248 -7e-6,0.960361 -0.297584,1.693027 -0.89273,2.198009 -0.595158,0.504977 -1.460835,0.757464 -2.59703,0.757464 -0.473421,0 -0.949093,-0.05075 -1.427016,-0.15217 -0.477927,-0.101441 -0.958108,-0.253615 -1.44054,-0.45651 v -1.454065 c 0.518502,0.329139 1.008827,0.570357 1.470974,0.723652 0.462142,0.153299 0.927669,0.229944 1.396582,0.229944 0.689831,0 1.22637,-0.154425 1.609618,-0.463271 0.383236,-0.308846 0.574857,-0.740557 0.574863,-1.295133 -6e-6,-0.504976 -0.131886,-0.890472 -0.395642,-1.156491 -0.263766,-0.266012 -0.722529,-0.471159 -1.37629,-0.615443 l -0.730416,-0.169077 c -0.937819,-0.211906 -1.618638,-0.532025 -2.042457,-0.960361 -0.423821,-0.428323 -0.635732,-1.003187 -0.635731,-1.724591 -10e-7,-0.901738 0.303211,-1.624263 0.909637,-2.167573 0.606423,-0.543293 1.412357,-0.814945 2.417809,-0.814954 0.387746,9e-6 0.795787,0.04397 1.224121,0.13188 0.428324,0.08793 0.879198,0.219811 1.352621,0.395641 z M 43.46383,62.3667 h 7.703172 v 1.149727 h -3.158369 v 8.947586 H 46.635724 V 63.516427 H 43.46383 Z m 9.008452,6.222055 V 62.3667 h 1.372909 v 6.84426 c -2e-6,0.491455 0.01353,0.842008 0.04058,1.051662 0.02704,0.209659 0.07439,0.370845 0.142026,0.483561 0.144277,0.266018 0.352805,0.466656 0.625586,0.601916 0.272775,0.135262 0.603039,0.202892 0.990795,0.202892 0.392255,0 0.723647,-0.06762 0.994176,-0.202892 0.270519,-0.13526 0.480174,-0.335898 0.628969,-0.601916 0.06762,-0.112713 0.114968,-0.272776 0.142025,-0.480179 0.02704,-0.2074 0.04057,-0.554573 0.04058,-1.041518 V 68.588755 62.3667 h 1.366145 v 6.222055 c -7e-6,1.032502 -0.06425,1.766298 -0.192748,2.201389 -0.128506,0.435094 -0.350561,0.794662 -0.666165,1.078717 -0.297583,0.266012 -0.637992,0.4644 -1.021228,0.595152 -0.383249,0.130751 -0.813831,0.196127 -1.291753,0.196127 -0.473421,0 -0.90175,-0.06538 -1.284989,-0.196127 -0.383255,-0.130752 -0.725917,-0.32914 -1.028002,-0.595152 C 53.020084,71.58932 52.799156,71.227492 52.668404,70.78338 52.53765,70.339273 52.472274,69.607731 52.472275,68.588755 Z M 63.976318,71.314284 66.350167,62.3667 H 67.76366 L 64.80818,72.464013 H 63.151219 L 60.195744,62.3667 h 1.413489 z M 68.142394,62.3667 h 1.33232 l 0.967125,8.19688 1.149728,-5.424007 h 1.427021 l 1.163255,5.437533 0.967125,-8.210406 H 76.4813 l -1.508183,10.097313 h -1.291739 l -1.372913,-5.998872 -1.366149,5.998872 h -1.29175 z m 8.91377,0 h 1.46759 l 2.218295,3.807627 2.258875,-3.807627 h 1.467602 l -3.023106,4.747698 3.239527,5.349615 h -1.467602 l -2.475296,-4.348676 -2.671427,4.348676 h -1.474354 l 3.38155,-5.349615 z m 8.000753,0 h 1.454063 l 2.46177,4.456885 2.455005,-4.456885 h 1.467591 l -3.239528,5.566033 v 4.53128 h -1.372912 v -4.53128 z m 9.285728,0 h 6.553455 v 1.041518 l -5.275231,7.906066 h 5.424021 v 1.149729 h -6.85103 v -1.04152 l 5.133196,-7.906066 h -4.984411 z m 10.259625,-0.426076 h 2.86756 v 0.967124 h -1.62315 v 10.41518 h 1.62315 v 0.967122 h -2.86756 z m 7.18242,0.426076 5.3158,11.382299 H 115.8155 L 110.49294,62.3667 Z m 11.55814,-0.426076 V 74.29005 h -2.86756 v -0.967122 h 1.62315 v -10.41518 h -1.62315 v -0.967124 z m 7.89253,0.426076 3.08398,3.767048 h -1.20383 l -2.48205,-2.671426 -2.4753,2.671426 h -1.20383 L 130.0383,62.3667 Z m 10.48958,12.822842 v 0.541045 h -6.92541 v -0.541045 z m -128.681544,3.510046 1.900432,2.542927 H 13.90231 l -2.198008,-2.542927 z m 9.85384,7.270335 h -0.41255 c -0.725909,0 -1.272593,0.12738 -1.640052,0.382116 -0.367464,0.254747 -0.551195,0.634608 -0.551193,1.139583 -2e-6,0.455387 0.137515,0.809321 0.412549,1.061814 0.27503,0.252493 0.656019,0.378734 1.142965,0.378734 0.685323,0 1.224117,-0.237839 1.616381,-0.713505 0.392255,-0.475677 0.590638,-1.132819 0.595153,-1.971449 v -0.277293 z m 2.414427,-0.513992 v 4.32162 h -1.251174 v -1.122674 c -0.266021,0.450878 -0.600794,0.783394 -1.00432,0.997561 -0.403537,0.214166 -0.893861,0.321244 -1.470975,0.321244 -0.770997,0 -1.386438,-0.217549 -1.846327,-0.652633 -0.459892,-0.435097 -0.689837,-1.017852 -0.689836,-1.748265 -1e-6,-0.843127 0.282922,-1.483372 0.848769,-1.920723 0.565844,-0.437339 1.396577,-0.656015 2.492203,-0.656026 h 1.670486 v -0.196119 c -0.0045,-0.604173 -0.157812,-1.042651 -0.459891,-1.315434 -0.30209,-0.272772 -0.784524,-0.409158 -1.447303,-0.409158 -0.423825,0 -0.852155,0.0609 -1.284991,0.182603 -0.432839,0.121743 -0.854406,0.299838 -1.2647,0.534283 v -1.244417 c 0.459889,-0.175829 0.900619,-0.307706 1.322188,-0.395643 0.421562,-0.08786 0.830731,-0.131865 1.227503,-0.131877 0.626708,1.2e-5 1.162121,0.09239 1.606236,0.277293 0.444104,0.184858 0.803676,0.46215 1.078715,0.831854 0.171325,0.225451 0.29306,0.503859 0.365208,0.835248 0.07213,0.331401 0.108205,0.828485 0.108205,1.491263 z m 7.378545,0.541046 c -7e-6,-0.964858 -0.153303,-1.693017 -0.459892,-2.184476 -0.306598,-0.491448 -0.759726,-0.737177 -1.359383,-0.737177 -0.604175,0 -1.061811,0.246857 -1.372909,0.740558 -0.311106,0.493714 -0.466657,1.220746 -0.466655,2.181095 -2e-6,0.955853 0.155549,1.681757 0.466655,2.177725 0.311098,0.495957 0.768734,0.743941 1.372909,0.743941 0.599657,0 1.052785,-0.24573 1.359383,-0.737189 0.306589,-0.491436 0.459885,-1.219606 0.459892,-2.184477 z m -3.658839,-2.826976 c 0.198381,-0.369704 0.472288,-0.65376 0.821716,-0.852156 0.349424,-0.198374 0.754083,-0.29756 1.213979,-0.297572 0.910758,1.2e-5 1.627646,0.350564 2.150666,1.051669 0.523005,0.701116 0.784512,1.667102 0.78452,2.897981 -8e-6,1.248927 -0.262642,2.228451 -0.787902,2.938574 -0.525273,0.710123 -1.245544,1.065185 -2.160812,1.065185 -0.450877,0 -0.848772,-0.09808 -1.193686,-0.29419 -0.344922,-0.196131 -0.621081,-0.481314 -0.828481,-0.855539 v 0.953598 H 27.786958 V 79.254163 h 1.244411 z m 12.958103,6.222065 c -0.333652,0.193864 -0.677442,0.339279 -1.031372,0.436212 -0.353941,0.09692 -0.715767,0.145404 -1.085478,0.145404 -1.172275,0 -2.088674,-0.35168 -2.7492,-1.055039 -0.660532,-0.70336 -0.990798,-1.677248 -0.990795,-2.921666 -3e-6,-1.244406 0.330263,-2.218282 0.990795,-2.921653 0.660526,-0.70336 1.576925,-1.055039 2.7492,-1.055051 0.365202,1.2e-5 0.721392,0.0473 1.06857,0.142022 0.347166,0.09471 0.696593,0.241232 1.04828,0.439606 v 1.305277 c -0.329143,-0.293051 -0.659409,-0.504963 -0.990794,-0.635735 -0.331398,-0.130739 -0.70675,-0.196119 -1.126056,-0.196119 -0.780015,0 -1.379677,0.252493 -1.798986,0.757467 -0.419314,0.504986 -0.628971,1.226382 -0.628967,2.164186 -4e-6,0.933308 0.21078,1.653587 0.632349,2.160816 0.421564,0.507229 1.020098,0.76085 1.795604,0.76085 0.432833,0 0.820584,-0.06647 1.163254,-0.199513 0.342657,-0.133004 0.660522,-0.339279 0.953596,-0.618827 z m 6.959233,-6.222065 v -3.915838 h 1.244411 v 10.523388 h -1.244411 v -0.953598 c -0.207407,0.374225 -0.483567,0.659408 -0.82848,0.855539 -0.344922,0.19613 -0.742818,0.29419 -1.193687,0.29419 -0.915277,0 -1.635546,-0.355062 -2.160811,-1.065185 -0.52527,-0.710123 -0.787902,-1.689647 -0.787902,-2.938574 0,-1.230879 0.263761,-2.196865 0.791282,-2.897981 0.527521,-0.701105 1.246663,-1.051657 2.157431,-1.051669 0.455378,1.2e-5 0.856654,0.09808 1.203832,0.29419 0.347167,0.196142 0.619945,0.481325 0.818335,0.855538 z m -3.658838,2.826976 c -3e-6,0.964871 0.153295,1.693041 0.459891,2.184477 0.306591,0.491459 0.759719,0.737189 1.359383,0.737189 0.599657,0 1.056167,-0.247984 1.369529,-0.743941 0.313351,-0.495968 0.47003,-1.221872 0.470035,-2.177725 -5e-6,-0.960349 -0.156684,-1.687381 -0.470035,-2.181095 -0.313362,-0.493701 -0.769872,-0.740558 -1.369529,-0.740558 -0.599664,0 -1.052792,0.245729 -1.359383,0.737177 -0.306596,0.491459 -0.459894,1.219618 -0.459891,2.184476 z m 13.708808,-0.317862 v 0.608682 h -5.390193 v 0.04056 c -1e-6,0.825102 0.21529,1.463093 0.645876,1.913959 0.430582,0.450878 1.038133,0.676305 1.822657,0.676305 0.396764,0 0.811566,-0.0631 1.24441,-0.189367 0.432833,-0.12624 0.894977,-0.317862 1.386436,-0.574852 v 1.237642 c -0.473424,0.193876 -0.929932,0.33928 -1.369528,0.436224 -0.439607,0.09692 -0.864554,0.145404 -1.274844,0.145404 -1.176784,0 -2.096565,-0.352807 -2.759346,-1.058432 -0.662786,-0.705603 -0.994177,-1.678375 -0.994176,-2.918272 -10e-7,-1.208334 0.324628,-2.173204 0.973886,-2.894611 0.649256,-0.721384 1.514932,-1.082093 2.597031,-1.082093 0.964865,0 1.725713,0.326891 2.282547,0.980651 0.556822,0.653772 0.835236,1.546498 0.835244,2.678179 z m -1.244411,-0.365206 c -0.01805,-0.730414 -0.1905,-1.286115 -0.517377,-1.667103 -0.326889,-0.380988 -0.796925,-0.571482 -1.410107,-0.571482 -0.599665,0 -1.093372,0.198385 -1.481119,0.595143 -0.387754,0.396781 -0.6177,0.946846 -0.689837,1.650205 z m 9.245166,-6.059746 v 1.034759 h -1.413494 c -0.44637,6e-6 -0.756345,0.09131 -0.929927,0.273906 -0.17359,0.18261 -0.260384,0.506113 -0.260379,0.970507 v 0.669541 h 2.6038 v 0.967125 h -2.6038 v 6.60755 h -1.244411 v -6.60755 h -2.022167 v -0.967125 h 2.022167 v -0.527519 c -3e-6,-0.8296 0.190491,-1.440529 0.571483,-1.832804 0.380983,-0.392249 0.975008,-0.588377 1.782077,-0.58839 z m 6.945702,6.675191 c -1.2e-5,-0.933308 -0.152179,-1.642303 -0.456514,-2.126999 -0.304335,-0.484684 -0.747322,-0.727031 -1.32895,-0.727031 -0.608682,0 -1.073075,0.242347 -1.393192,0.727031 -0.320128,0.484696 -0.480186,1.193691 -0.480186,2.126999 0,0.933307 0.161185,1.644557 0.483568,2.133762 0.322371,0.489193 0.790146,0.733783 1.403337,0.733783 0.57261,0 1.011088,-0.245718 1.315423,-0.737177 0.304335,-0.491447 0.456502,-1.20157 0.456514,-2.130368 z m 1.244406,3.361259 c 0,1.136201 -0.268263,1.997364 -0.804801,2.583501 -0.536549,0.586136 -1.325579,0.879199 -2.367091,0.879199 -0.342662,0 -0.701117,-0.03149 -1.07533,-0.09471 -0.374225,-0.0631 -0.748461,-0.155549 -1.122674,-0.277292 v -1.230879 c 0.441848,0.207403 0.843127,0.360698 1.203825,0.459884 0.360697,0.09924 0.692087,0.148798 0.994179,0.148798 0.671796,0 1.161,-0.182604 1.46759,-0.547822 0.30659,-0.365207 0.459884,-0.944568 0.459896,-1.738108 v -0.05404 -0.845382 c -0.198385,0.423824 -0.468914,0.739432 -0.811576,0.946835 -0.342661,0.207391 -0.759722,0.311098 -1.251169,0.311098 -0.88372,0 -1.589334,-0.353934 -2.116853,-1.061802 -0.52752,-0.707869 -0.791285,-1.654703 -0.791285,-2.840503 0,-1.190298 0.263765,-2.139399 0.791285,-2.847267 0.527519,-0.707868 1.233133,-1.061802 2.116853,-1.061814 0.486938,1.2e-5 0.89949,0.09692 1.237654,0.29082 0.338141,0.193887 0.613167,0.493713 0.825091,0.899489 v -0.980652 h 1.244406 z m 8.393014,-4.206652 v 4.69359 h -1.25117 v -4.69359 c 0,-0.680815 -0.119489,-1.18128 -0.358443,-1.501408 -0.238978,-0.320117 -0.613202,-0.480175 -1.122674,-0.480187 -0.581639,1.2e-5 -1.029124,0.206287 -1.342477,0.618827 -0.313365,0.412551 -0.470041,1.004324 -0.470041,1.775319 v 4.281039 H 77.793341 V 79.254163 h 1.244406 v 4.084915 c 0.22093,-0.432831 0.520756,-0.760838 0.89949,-0.984022 0.378733,-0.223185 0.827357,-0.334771 1.34587,-0.334783 0.770983,1.2e-5 1.346974,0.25362 1.727962,0.760849 0.380989,0.507241 0.571483,1.274854 0.571483,2.302839 z m 2.955482,-2.881085 h 3.18542 v 6.607562 h 2.468521 v 0.967113 h -6.181472 v -0.967113 h 2.468533 v -5.640437 h -1.941002 z m 1.941002,-2.948713 h 1.244418 v 1.575803 h -1.244418 z m 8.71764,10.658647 V 83.170001 H 95.05278 v -0.967125 h 3.388313 v 7.709934 c -1.2e-5,0.879211 -0.201778,1.556643 -0.6053,2.032321 -0.403545,0.475666 -0.97727,0.713504 -1.721211,0.713504 h -1.717828 v -1.055039 h 1.58257 c 0.405776,0 0.710111,-0.140906 0.913016,-0.422696 0.202883,-0.281802 0.304336,-0.704499 0.304336,-1.26809 z m 0,-10.658647 h 1.244417 v 1.575803 h -1.244417 z m 5.870374,0 h 1.285 v 6.093563 l 3.26657,-3.14485 h 1.51493 l -2.98252,2.854031 3.44917,4.720644 h -1.52169 l -2.79992,-3.909069 -0.92654,0.872436 v 3.036633 h -1.285 z m 11.05767,7.777574 c -1e-5,0.559083 0.10262,0.980652 0.30772,1.264697 0.20515,0.284044 0.50836,0.426078 0.90964,0.426078 h 1.45407 v 1.055039 h -1.5758 c -0.74396,0 -1.31994,-0.238966 -1.72798,-0.716886 -0.40804,-0.477921 -0.61206,-1.154237 -0.61205,-2.028928 v -6.878082 h -1.99512 v -0.973883 h 3.23952 z m 8.58237,-4.057866 c 0.1533,-0.324626 0.3483,-0.564707 0.58501,-0.720268 0.23672,-0.155538 0.52189,-0.233318 0.85554,-0.23333 0.60867,1.2e-5 1.03812,0.235596 1.28837,0.706753 0.25023,0.471157 0.37535,1.358258 0.37535,2.66127 v 4.389255 h -1.1362 v -4.335147 c -1e-5,-1.068566 -0.0597,-1.732472 -0.17922,-1.991728 -0.11949,-0.259245 -0.33704,-0.388879 -0.65264,-0.388879 -0.3607,0 -0.60756,0.13864 -0.74056,0.415921 -0.13301,0.277304 -0.19952,0.932192 -0.1995,1.964686 v 4.335147 h -1.13622 v -4.335147 c 0,-1.082082 -0.0643,-1.749381 -0.19273,-2.001874 -0.12851,-0.252481 -0.35959,-0.378733 -0.69323,-0.378733 -0.32915,0 -0.55795,0.13864 -0.68645,0.415921 -0.12851,0.277304 -0.19275,0.932192 -0.19275,1.964686 v 4.335147 h -1.12945 v -7.574675 h 1.12945 v 0.649263 c 0.14879,-0.270517 0.33477,-0.476793 0.55796,-0.618827 0.22317,-0.142022 0.47679,-0.213027 0.76085,-0.213039 0.34266,1.2e-5 0.62783,0.07891 0.85552,0.236712 0.2277,0.157815 0.40466,0.396769 0.5309,0.716886 z m 10.86831,2.11009 v 4.69359 h -1.25118 v -4.69359 c 0,-0.680815 -0.11948,-1.18128 -0.35843,-1.501408 -0.23898,-0.320117 -0.6132,-0.480175 -1.12267,-0.480187 -0.58164,1.2e-5 -1.02913,0.206287 -1.34249,0.618827 -0.31336,0.412551 -0.47004,1.004324 -0.47003,1.775319 v 4.281039 h -1.24441 v -7.574675 h 1.24441 v 1.136202 c 0.22093,-0.432831 0.52075,-0.760838 0.89949,-0.984022 0.37873,-0.223185 0.82734,-0.334771 1.34586,-0.334783 0.77099,1.2e-5 1.34697,0.25362 1.72797,0.760849 0.38099,0.507241 0.57147,1.274854 0.57148,2.302839 z m 5.39019,-2.008637 c -0.63123,0 -1.10915,0.245729 -1.43377,0.737177 -0.32463,0.491459 -0.48694,1.219618 -0.48694,2.184476 0,0.960362 0.16231,1.687405 0.48694,2.181107 0.32462,0.493702 0.80254,0.740559 1.43377,0.740559 0.63573,0 1.11591,-0.246857 1.44055,-0.740559 0.32461,-0.493702 0.48693,-1.220745 0.48695,-2.181107 -2e-5,-0.964858 -0.16234,-1.693017 -0.48695,-2.184476 -0.32464,-0.491448 -0.80482,-0.737177 -1.44055,-0.737177 z m 0,-1.055051 c 1.05053,1.2e-5 1.85421,0.340419 2.41105,1.021233 0.55682,0.680826 0.83524,1.665987 0.83524,2.955471 0,1.294017 -0.27729,2.280294 -0.83186,2.958853 -0.55458,0.678572 -1.35938,1.017852 -2.41443,1.017852 -1.05053,0 -1.85309,-0.33928 -2.40766,-1.017852 -0.55458,-0.678559 -0.83187,-1.664836 -0.83187,-2.958853 0,-1.289484 0.27729,-2.274645 0.83187,-2.955471 0.55457,-0.680814 1.35713,-1.021221 2.40766,-1.021233 z M 12.353559,106.1375 v 3.83467 H 11.102385 V 99.516424 h 1.251174 v 0.967126 c 0.207399,-0.37423 0.483559,-0.659398 0.828481,-0.85554 0.344913,-0.196119 0.742809,-0.29419 1.193686,-0.29419 0.915268,0 1.633284,0.353946 2.154049,1.0618 0.520751,0.70788 0.781131,1.68853 0.781139,2.94196 -8e-6,1.23088 -0.261515,2.19688 -0.784521,2.89798 -0.523019,0.70112 -1.239907,1.05167 -2.150667,1.05167 -0.459895,0 -0.862298,-0.0981 -1.207213,-0.2942 -0.344921,-0.19612 -0.616573,-0.4813 -0.814954,-0.85553 z m 3.652075,-2.82698 c -6e-6,-0.96487 -0.152176,-1.69302 -0.456508,-2.18448 -0.304346,-0.49145 -0.756347,-0.73717 -1.356003,-0.73718 -0.604174,1e-5 -1.061811,0.24686 -1.372909,0.74056 -0.311106,0.49371 -0.466657,1.22074 -0.466655,2.1811 -2e-6,0.95586 0.155549,1.68176 0.466655,2.17772 0.311098,0.49597 0.768735,0.74394 1.372909,0.74394 0.599656,0 1.051657,-0.24573 1.356003,-0.73718 0.304332,-0.49145 0.456502,-1.21961 0.456508,-2.18448 z m 4.389253,0.0271 c -1e-6,0.96487 0.152169,1.69304 0.45651,2.18449 0.304337,0.49145 0.756336,0.73718 1.356002,0.73718 0.599657,0 1.053912,-0.24686 1.362765,-0.74056 0.308842,-0.4937 0.463267,-1.22074 0.463272,-2.18111 -5e-6,-0.96035 -0.15443,-1.68738 -0.463272,-2.18109 -0.308853,-0.4937 -0.763108,-0.74056 -1.362765,-0.74056 -0.599666,0 -1.051665,0.24573 -1.356002,0.73718 -0.304341,0.49146 -0.456511,1.21961 -0.45651,2.18447 z m 3.638549,2.81346 c -0.202898,0.37423 -0.476803,0.66166 -0.821716,0.8623 -0.344923,0.20063 -0.745073,0.30095 -1.200451,0.30095 -0.906259,0 -1.622019,-0.35055 -2.147284,-1.05166 -0.52527,-0.70111 -0.787904,-1.6671 -0.787902,-2.89799 -2e-6,-1.25343 0.261505,-2.23408 0.78452,-2.94196 0.52301,-0.707857 1.239899,-1.061791 2.150666,-1.061802 0.45087,1.1e-5 0.848764,0.09808 1.193688,0.294189 0.344912,0.196142 0.621072,0.481323 0.828479,0.855543 v -0.967129 h 1.251174 v 10.455759 h -1.251174 z m 10.259627,-5.07233 c -0.266023,-0.20739 -0.536547,-0.35843 -0.811573,-0.45312 -0.275039,-0.0947 -0.577124,-0.14203 -0.906255,-0.14204 -0.775508,1e-5 -1.368406,0.24348 -1.778696,0.73043 -0.410299,0.48695 -0.615446,1.19029 -0.615442,2.11008 v 3.76704 h -1.251174 v -7.574673 h 1.251174 v 1.481133 c 0.207397,-0.53654 0.52639,-0.94797 0.956979,-1.234276 0.430579,-0.286299 0.941192,-0.429449 1.531842,-0.42946 0.306588,1.1e-5 0.592892,0.03835 0.858914,0.114933 0.266008,0.0767 0.520752,0.19613 0.764231,0.358443 z m 7.101257,-1.298518 v 1.217368 c -0.356197,-0.20741 -0.71464,-0.36296 -1.075333,-0.46666 -0.360705,-0.10366 -0.728166,-0.15554 -1.102386,-0.15555 -0.563595,1e-5 -0.984035,0.0913 -1.261318,0.27391 -0.27729,0.1826 -0.415934,0.46102 -0.415931,0.83523 -3e-6,0.33816 0.103696,0.59066 0.311102,0.75747 0.207399,0.16682 0.723648,0.32915 1.548751,0.48694 l 0.50047,0.0947 c 0.61769,0.11722 1.085471,0.35168 1.403343,0.70336 0.317859,0.35169 0.476791,0.80932 0.476798,1.37291 -7e-6,0.74845 -0.266021,1.33346 -0.798045,1.75503 -0.532036,0.42157 -1.271468,0.63234 -2.218298,0.63234 -0.374228,0 -0.766487,-0.0395 -1.17678,-0.11835 -0.410298,-0.0789 -0.854407,-0.19725 -1.332331,-0.35506 v -1.285 c 0.464398,0.23897 0.908508,0.41819 1.332331,0.53768 0.423818,0.11948 0.825095,0.17922 1.203832,0.17922 0.550061,0 0.976137,-0.11156 1.278227,-0.33477 0.302079,-0.22319 0.453122,-0.53541 0.453128,-0.93669 -6e-6,-0.57712 -0.552326,-0.97614 -1.656961,-1.19707 l -0.05411,-0.0136 -0.466655,-0.0947 c -0.716891,-0.13977 -1.239904,-0.37536 -1.569039,-0.70676 -0.32914,-0.33137 -0.493708,-0.78338 -0.493706,-1.35599 -2e-6,-0.7259 0.245724,-1.28611 0.737177,-1.680627 0.49145,-0.394504 1.192557,-0.591773 2.103325,-0.591773 0.405782,0 0.795787,0.03719 1.170018,0.111563 0.374219,0.07438 0.74168,0.185997 1.102384,0.334782 z m 5.904188,-2.414424 v 2.150659 h 2.826977 v 0.967123 h -2.826977 v 4.11197 c -4e-6,0.55909 0.10595,0.9491 0.317866,1.17001 0.211906,0.22093 0.581622,0.3314 1.109149,0.3314 h 1.399962 v 0.99417 h -1.521698 c -0.933313,0 -1.591588,-0.18711 -1.974826,-0.56134 -0.383245,-0.37422 -0.574867,-1.01896 -0.574863,-1.93424 v -4.11197 H 44.03193 v -0.967123 h 2.022168 v -2.150659 z m 5.498402,6.857772 v -4.693586 h 1.24441 v 4.693586 c -2e-6,0.68083 0.120607,1.18131 0.361826,1.50142 0.241215,0.32012 0.614313,0.48018 1.119294,0.48018 0.586131,0 1.03475,-0.20628 1.345857,-0.61883 0.311098,-0.41254 0.466648,-1.00431 0.466654,-1.7753 v -4.281056 h 1.251174 v 7.561146 h -1.251174 v -1.1362 c -0.220933,0.43735 -0.521891,0.76874 -0.902874,0.99418 -0.380993,0.22544 -0.82623,0.33815 -1.335712,0.33815 -0.775506,0 -1.352623,-0.25361 -1.731355,-0.76084 -0.378734,-0.50724 -0.568101,-1.27485 -0.5681,-2.30285 z m 7.689647,-4.707113 h 1.291753 l 2.198008,6.357323 2.204772,-6.357323 h 1.291751 l -2.691714,7.574673 h -1.602856 z m 7.655837,0 h 1.230879 l 1.318805,6.120613 1.082104,-3.90907 h 1.061803 l 1.09562,3.90907 1.318804,-6.120613 H 76.4813 l -1.771937,7.574673 h -1.190309 l -1.210589,-4.15253 -1.203836,4.15253 H 69.91432 Z m 15.89329,0 -2.712008,3.625023 2.975762,3.94965 h -1.440536 l -2.218295,-3.03662 -2.211542,3.03662 h -1.440536 l 2.975762,-3.94965 -2.711997,-3.625023 h 1.379665 l 2.008648,2.739063 1.99511,-2.739063 z m 6.573732,5.139963 c -0.207403,0.52753 -0.471168,1.22187 -0.791285,2.08303 -0.446369,1.19031 -0.746195,1.91622 -0.89949,2.17773 -0.207402,0.35168 -0.466659,0.61544 -0.777758,0.79128 -0.311098,0.17583 -0.674062,0.26376 -1.088856,0.26376 h -1.000943 v -1.04152 h 0.737177 c 0.365207,-1e-5 0.651506,-0.10598 0.858909,-0.31787 0.207414,-0.21191 0.471168,-0.75971 0.791297,-1.64343 l -2.928429,-7.452943 h 1.318804 l 2.245349,5.924483 2.211531,-5.924483 h 1.318816 z m 4.06463,-5.153479 h 5.498404 v 1.136189 l -4.348676,5.43754 h 4.348676 v 1.01446 h -5.660728 v -1.14971 l 4.348674,-5.44431 h -4.18635 z m 13.641174,8.873189 V 109.35 h -0.43284 c -1.12268,0 -1.8745,-0.16682 -2.25549,-0.50047 -0.381,-0.33364 -0.57149,-0.99869 -0.57149,-1.99512 v -1.61638 c 0,-0.68081 -0.12061,-1.15198 -0.36182,-1.41349 -0.24123,-0.2615 -0.67744,-0.39225 -1.30867,-0.39225 h -0.4193 v -0.96712 h 0.4193 c 0.63574,0 1.07309,-0.1285 1.31205,-0.3855 0.23896,-0.257 0.35844,-0.72365 0.35844,-1.39997 v -1.623137 c 0,-0.996422 0.19049,-1.660339 0.57149,-1.991729 0.38099,-0.331389 1.13281,-0.497083 2.25549,-0.497095 h 0.43284 v 0.967125 h -0.47342 c -0.63123,0 -1.04265,0.09808 -1.23426,0.29419 -0.19163,0.196142 -0.28744,0.614329 -0.28744,1.254563 v 1.677243 c 0,0.70788 -0.10261,1.22188 -0.30773,1.54199 -0.20514,0.32012 -0.5557,0.53654 -1.05165,0.64925 0.50046,0.12175 0.85214,0.34268 1.05505,0.66279 0.20288,0.32012 0.30433,0.83187 0.30433,1.53523 v 1.67725 c 0,0.64474 0.0958,1.06405 0.28744,1.25793 0.19161,0.19388 0.60303,0.29081 1.23426,0.29082 z M 114.5508,96.506879 V 110.3577 h -1.16325 V 96.506879 Z m 5.07909,11.869241 h 0.45989 c 0.63573,-1e-5 1.05053,-0.0992 1.24441,-0.29758 0.19387,-0.19839 0.29081,-0.61545 0.29081,-1.25117 v -1.67725 c 0,-0.70336 0.10145,-1.21511 0.30434,-1.53523 0.20289,-0.32011 0.55457,-0.54104 1.05505,-0.66278 -0.49597,-0.11273 -0.84652,-0.32914 -1.05167,-0.64926 -0.20515,-0.32011 -0.30772,-0.83411 -0.30772,-1.54199 v -1.677243 c 0,-0.635725 -0.0969,-1.052785 -0.29081,-1.25117 -0.19388,-0.198385 -0.60868,-0.297583 -1.24441,-0.297583 h -0.45989 v -0.967125 h 0.4193 c 1.12268,1.2e-5 1.87338,0.165706 2.25212,0.497095 0.37873,0.33139 0.5681,0.995307 0.56811,1.991729 v 1.623137 c -1e-5,0.67632 0.1206,1.14297 0.36181,1.39997 0.24122,0.257 0.67969,0.3855 1.31544,0.3855 h 0.43283 v 0.96712 h -0.43283 c -0.63575,0 -1.07422,0.13075 -1.31544,0.39225 -0.24121,0.26151 -0.36182,0.73268 -0.36181,1.41349 v 1.61638 c -1e-5,0.99643 -0.18938,1.66148 -0.56811,1.99512 -0.37874,0.33365 -1.12944,0.50047 -2.25212,0.50047 h -0.4193 z m 14.58124,-6.56022 v 1.17679 c -0.33816,0.26602 -0.66842,0.46102 -0.99079,0.58501 -0.32238,0.12399 -0.66166,0.18598 -1.01785,0.18598 -0.40579,0 -0.86343,-0.11493 -1.37291,-0.34492 -0.0992,-0.0451 -0.17359,-0.0767 -0.22318,-0.0947 -0.34718,-0.14878 -0.63686,-0.25022 -0.86906,-0.30433 -0.2322,-0.054 -0.46328,-0.0811 -0.69322,-0.0811 -0.3562,0 -0.69321,0.0665 -1.01108,0.1995 -0.31787,0.13301 -0.64136,0.34154 -0.97051,0.62559 v -1.17678 c 0.35168,-0.27052 0.69209,-0.46665 1.02123,-0.58839 0.32914,-0.12174 0.68082,-0.1826 1.05504,-0.18261 0.23897,10e-6 0.47117,0.0247 0.69661,0.0744 0.22543,0.0496 0.50497,0.14428 0.83862,0.28405 0.054,0.0225 0.12849,0.0564 0.22318,0.10145 0.52301,0.24798 0.99418,0.37197 1.4135,0.37197 0.31559,0 0.62783,-0.0688 0.93668,-0.20628 0.30884,-0.13751 0.63009,-0.34604 0.96374,-0.62559 z"
     style="fill:#333333;stroke-width:1"
     id="path996"
     inkscape:connector-curvature="0" />
</svg>
